<svg id="visual" viewBox="0 0 900 3000" width="900" height="3000" xmlns="http://www.w3.org/2000/svg" xmlns:xlink="http://www.w3.org/1999/xlink" version="1.1"><rect x="0" y="0" width="900" height="3000" fill="#60788a"></rect><defs><linearGradient id="grad1_0" x1="0%" y1="0%" x2="100%" y2="100%"><stop offset="30%" stop-color="#cac8c5" stop-opacity="1"></stop><stop offset="70%" stop-color="#cac8c5" stop-opacity="1"></stop></linearGradient></defs><defs><linearGradient id="grad1_1" x1="0%" y1="0%" x2="100%" y2="100%"><stop offset="30%" stop-color="#cac8c5" stop-opacity="1"></stop><stop offset="70%" stop-color="#b0b4ac" stop-opacity="1"></stop></linearGradient></defs><defs><linearGradient id="grad1_2" x1="0%" y1="0%" x2="100%" y2="100%"><stop offset="30%" stop-color="#90a19b" stop-opacity="1"></stop><stop offset="70%" stop-color="#b0b4ac" stop-opacity="1"></stop></linearGradient></defs><defs><linearGradient id="grad1_3" x1="0%" y1="0%" x2="100%" y2="100%"><stop offset="30%" stop-color="#90a19b" stop-opacity="1"></stop><stop offset="70%" stop-color="#728e92" stop-opacity="1"></stop></linearGradient></defs><defs><linearGradient id="grad1_4" x1="0%" y1="0%" x2="100%" y2="100%"><stop offset="30%" stop-color="#60788a" stop-opacity="1"></stop><stop offset="70%" stop-color="#728e92" stop-opacity="1"></stop></linearGradient></defs><defs><linearGradient id="grad2_0" x1="0%" y1="0%" x2="100%" y2="100%"><stop offset="30%" stop-color="#cac8c5" stop-opacity="1"></stop><stop offset="70%" stop-color="#cac8c5" stop-opacity="1"></stop></linearGradient></defs><defs><linearGradient id="grad2_1" x1="0%" y1="0%" x2="100%" y2="100%"><stop offset="30%" stop-color="#b0b4ac" stop-opacity="1"></stop><stop offset="70%" stop-color="#cac8c5" stop-opacity="1"></stop></linearGradient></defs><defs><linearGradient id="grad2_2" x1="0%" y1="0%" x2="100%" y2="100%"><stop offset="30%" stop-color="#b0b4ac" stop-opacity="1"></stop><stop offset="70%" stop-color="#90a19b" stop-opacity="1"></stop></linearGradient></defs><defs><linearGradient id="grad2_3" x1="0%" y1="0%" x2="100%" y2="100%"><stop offset="30%" stop-color="#728e92" stop-opacity="1"></stop><stop offset="70%" stop-color="#90a19b" stop-opacity="1"></stop></linearGradient></defs><defs><linearGradient id="grad2_4" x1="0%" y1="0%" x2="100%" y2="100%"><stop offset="30%" stop-color="#728e92" stop-opacity="1"></stop><stop offset="70%" stop-color="#60788a" stop-opacity="1"></stop></linearGradient></defs><g transform="translate(900, 0)"><path d="M0 855C-177.3 848.6 -354.5 842.3 -427.5 740.5C-500.5 638.6 -469.2 441.3 -523.1 302C-577 162.7 -716 81.3 -855 0L0 0Z" fill="#67838e"></path><path d="M0 684C-141.8 678.9 -283.6 673.8 -342 592.4C-400.4 510.9 -375.4 353.1 -418.5 241.6C-461.6 130.1 -572.8 65.1 -684 0L0 0Z" fill="#809895"></path><path d="M0 513C-106.4 509.2 -212.7 505.4 -256.5 444.3C-300.3 383.2 -281.5 264.8 -313.8 181.2C-346.2 97.6 -429.6 48.8 -513 0L0 0Z" fill="#a1aba2"></path><path d="M0 342C-70.9 339.5 -141.8 336.9 -171 296.2C-200.2 255.4 -187.7 176.5 -209.2 120.8C-230.8 65.1 -286.4 32.5 -342 0L0 0Z" fill="#bebeb8"></path><path d="M0 171C-35.5 169.7 -70.9 168.5 -85.5 148.1C-100.1 127.7 -93.8 88.3 -104.6 60.4C-115.4 32.5 -143.2 16.3 -171 0L0 0Z" fill="#cac8c5"></path></g><g transform="translate(0, 3000)"><path d="M0 -855C181.1 -850.8 362.1 -846.7 427.5 -740.5C492.9 -634.2 442.5 -425.9 494.5 -285.5C546.5 -145.1 700.7 -72.5 855 0L0 0Z" fill="#67838e"></path><path d="M0 -684C144.9 -680.7 289.7 -677.3 342 -592.4C394.3 -507.4 354 -340.7 395.6 -228.4C437.2 -116.1 560.6 -58 684 0L0 0Z" fill="#809895"></path><path d="M0 -513C108.6 -510.5 217.3 -508 256.5 -444.3C295.7 -380.5 265.5 -255.6 296.7 -171.3C327.9 -87 420.4 -43.5 513 0L0 0Z" fill="#a1aba2"></path><path d="M0 -342C72.4 -340.3 144.9 -338.7 171 -296.2C197.1 -253.7 177 -170.4 197.8 -114.2C218.6 -58 280.3 -29 342 0L0 0Z" fill="#bebeb8"></path><path d="M0 -171C36.2 -170.2 72.4 -169.3 85.5 -148.1C98.6 -126.8 88.5 -85.2 98.9 -57.1C109.3 -29 140.1 -14.5 171 0L0 0Z" fill="#cac8c5"></path></g></svg>